<svg width="176" height="80" viewBox="0 0 176 80" fill="none" xmlns="http://www.w3.org/2000/svg">
<path d="M150.922 31.2C142.319 31.8 146.12 43 155.724 42.4C165.127 41.8 160.326 30.6 150.922 31.2Z" fill="#F19021"/>
<path d="M147.321 24.2C131.915 24.2 119.511 36.6 119.511 52C119.511 67.4 131.915 80 147.321 80C162.726 80 175.131 67.6 175.131 52.2C175.331 36.6 162.726 24.2 147.321 24.2ZM147.321 77C133.516 77 122.312 65.8 122.312 52C122.312 38.2 133.516 27 147.321 27C161.126 27 172.33 38.2 172.33 52C172.33 65.8 161.126 77 147.321 77ZM146.52 4.8C139.918 9.8 141.118 17.4 141.118 17.4C141.118 17.4 136.917 6.6 131.515 0C130.715 8.6 133.516 19.8 133.516 19.8C133.516 19.8 130.114 12.8 121.711 12.4C128.514 16.4 131.315 23.4 131.915 25.4C136.117 22.8 140.718 21.4 145.52 21.2C144.92 19.4 143.119 12 146.52 4.8Z" fill="#F19021"/>
<path d="M3.2677 54.7998V60.5998H0.866821V45.5998H6.06873C7.86939 45.5998 9.06983 45.9998 10.0702 46.7998C10.8705 47.5998 11.4707 48.7998 11.4707 50.1998C11.4707 51.5998 11.0706 52.7998 10.0702 53.5998C9.2699 54.3998 7.86939 54.7998 6.2688 54.7998H3.2677ZM8.86975 50.1998C8.86975 49.3998 8.66968 48.5998 8.06946 48.1998C7.66931 47.7998 6.86902 47.5998 5.86865 47.5998H3.2677V52.7998H5.66858C7.86939 52.7998 8.86975 51.9998 8.86975 50.1998ZM21.2743 60.5998L17.4729 54.5998H15.6722V60.5998H13.2714V45.5998H18.6733C20.474 45.5998 21.6744 45.9998 22.6748 46.7998C23.4751 47.5998 24.0753 48.7998 24.0753 50.1998C24.0753 51.3998 23.6752 52.3998 23.075 52.9998C22.4747 53.7998 21.4744 54.1998 20.2739 54.3998L24.2754 60.5998H21.2743ZM15.8723 52.9998H18.4733C20.474 52.9998 21.4744 52.1998 21.4744 50.3998C21.4744 49.5998 21.2743 48.9998 20.6741 48.3998C20.2739 47.9998 19.4736 47.7998 18.4733 47.7998H15.8723V52.9998ZM35.0794 57.3998H28.677L27.4766 60.5998H24.8756L30.4777 45.7998H33.2787L38.8807 60.5998H36.2798L35.0794 57.3998ZM34.4791 55.5998L32.0783 48.5998L29.6774 55.5998H34.4791ZM51.0852 46.7998C52.2857 47.5998 53.086 48.9998 53.4861 50.3998H50.8851C50.485 49.5998 50.0849 48.9998 49.2846 48.3998C48.4843 47.9998 47.4839 47.5998 46.6836 47.5998C45.8833 47.5998 44.8829 47.7998 44.0827 48.1998C43.2824 48.5998 42.6821 49.1998 42.282 49.9998C41.8818 50.7998 41.6818 51.7998 41.6818 52.7998C41.6818 53.7998 41.8818 54.7998 42.282 55.7998C42.6821 56.5998 43.2824 57.1998 44.0827 57.5998C44.8829 57.9998 45.8833 58.1998 46.6836 58.1998C47.884 58.1998 49.0845 57.7998 49.8848 56.9998C50.6851 56.1998 51.2853 55.1998 51.4854 53.7998H45.8833V51.9998H53.4861V54.3998C53.286 55.3998 52.8859 56.5998 52.2857 57.3998C52.0856 58.7998 51.0852 59.5998 50.0849 59.9998C49.0845 60.5998 47.884 60.7998 46.6836 60.7998C45.2831 60.7998 44.0827 60.3998 42.8822 59.7998C41.6818 59.1998 40.8815 58.1998 40.2813 56.9998C39.0808 54.3998 39.0808 51.5998 40.2813 48.9998C40.8815 47.7998 41.6818 46.9998 42.8822 46.1998C44.0827 45.5998 45.4832 45.1998 46.6836 45.1998C48.4843 45.5998 49.8848 45.9998 51.0852 46.7998ZM70.8925 45.7998V60.5998H68.4916V49.3998L64.2901 60.5998H62.0892L57.6876 49.3998V60.5998H55.2868V45.7998H58.2879L63.2897 57.5998L68.0914 45.7998H70.8925ZM82.8969 57.3998H76.4945L75.2941 60.5998H72.6931L78.2952 45.7998H81.0962L86.6983 60.5998H84.0973L82.8969 57.3998ZM82.0966 55.5998L79.6957 48.5998L77.2948 55.5998H82.0966ZM97.1021 45.5998V47.5998H92.9005V60.5998H90.4997V47.5998H86.098V45.5998H97.1021ZM100.703 45.5998V60.5998H98.3025V45.5998H100.703ZM114.508 46.7998C115.709 47.7998 116.709 49.1998 116.909 50.5998H114.308C113.908 49.7998 113.308 48.9998 112.708 48.3998C111.907 47.7998 110.907 47.5998 109.907 47.5998C109.106 47.5998 108.306 47.7998 107.506 48.1998C106.706 48.5998 106.305 49.3998 105.905 49.9998C105.105 51.7998 105.105 53.7998 105.905 55.7998C106.305 56.5998 106.906 57.1998 107.506 57.5998C108.306 57.9998 109.106 58.1998 109.907 58.1998C110.907 58.1998 111.907 57.9998 112.708 57.3998C113.508 56.7998 114.108 56.1998 114.308 55.1998H116.909C116.509 56.7998 115.709 57.9998 114.508 58.9998C113.308 59.9998 111.707 60.3998 109.907 60.3998C108.506 60.3998 107.306 59.9998 106.105 59.3998C105.105 58.7998 104.105 57.7998 103.504 56.5998C102.304 53.9998 102.304 51.1998 103.504 48.5998C104.105 47.3998 104.905 46.5998 106.105 45.7998C107.306 45.1998 108.506 44.7998 109.907 44.7998C111.707 45.3998 113.308 45.9998 114.508 46.7998ZM128.514 54.7998V60.5998H126.113V45.5998H131.315C133.115 45.5998 134.316 45.9998 135.316 46.7998C136.116 47.5998 136.717 48.7998 136.717 50.1998C136.717 51.5998 136.316 52.7998 135.316 53.5998C134.516 54.3998 133.115 54.7998 131.515 54.7998H128.514ZM133.916 50.1998C133.916 49.3998 133.715 48.5998 133.115 48.1998C132.715 47.7998 131.915 47.5998 130.914 47.5998H128.514V52.7998H130.914C132.915 52.7998 133.916 51.9998 133.916 50.1998ZM140.518 58.7998H145.72V60.5998H138.117V45.5998H140.518V58.7998ZM156.924 57.3998H150.522L149.321 60.5998H146.72L152.322 45.7998H155.123L160.725 60.5998H158.124L156.924 57.3998ZM156.124 55.5998L153.723 48.5998L151.322 55.5998H156.124ZM170.329 45.5998L165.327 55.1998V60.5998H162.926V55.1998L157.924 45.5998H160.725L164.127 52.5998L167.528 45.5998H170.329Z" fill="white"/>
</svg>
