<svg width="884" height="816" viewBox="0 0 884 816" fill="none" xmlns="http://www.w3.org/2000/svg">
    <g opacity=".2" fill="#fff" fill-opacity=".1">
        <path d="M751.173 142.921c8.468 7.346 17.877 11.746 24.472 11.746 2.981 0 7.987.254 13.809-1.613 6.654-3.24 13.42-9.813 14.092-23.187 0 0 1.198 22.854-10.088 36.134-.708 1.04-1.448 2-2.265 2.786 0 0 15.343-1.013 19.705-.973 4.36-.04 19.703.973 19.703.973-.82-.786-1.56-1.746-2.267-2.786-11.286-13.28-10.093-36.134-10.093-36.134.681 13.374 7.443 19.947 14.093 23.187 5.83 1.867 10.832 1.613 13.815 1.613 6.588 0 16.003-4.4 24.475-11.746 8.466-7.334 7.054-20.187 4.161-26.867-2.748-6.333-57.731-68.627-63.615-75.28v-.627c-.009.014-.117.134-.272.32a60.044 60.044 0 0 0-.277-.32v.627c-5.881 6.653-60.867 68.947-63.612 75.28-2.896 6.68-4.311 19.533 4.164 26.867zm162.032-26.12L809.23 219.467 705.257 116.801 809.23 14.121 913.205 116.8zM946.595 298.107c-6.864-13.48-11.508-25.187-11.508-35.227 0-2.506.46-3.84 1.437-3.84.725 0 1.129 1.12 1.632 1.934 5.191 8.293 14.837 13.853 25.869 13.853 16.536 0 29.962-12.533 29.962-27.973 0-15.454-13.426-27.987-29.962-27.987-5.385 0-10.368 1.413-14.777 3.64-2.433 1.227-3.457-.733-1.075-2.547 7.07-5.36 11.675-13.493 11.675-22.64 0-16.013-13.916-29.013-31.065-29.013-17.154 0-31.071 13-31.071 29.013 0 9.147 4.604 17.28 11.664 22.64 2.393 1.814 1.359 3.774-1.052 2.547-4.431-2.227-9.416-3.64-14.788-3.64-16.549 0-29.963 12.533-29.963 27.987 0 15.44 13.414 27.973 29.963 27.973 11.031 0 20.667-5.56 25.864-13.853.497-.814.899-1.934 1.621-1.934.983 0 1.452 1.334 1.452 3.84 0 10.04-4.65 21.747-11.522 35.227 2.972-.587 11.954-2.067 17.832-2.067 5.857 0 14.85 1.48 17.812 2.067zm-123.452-64.893 103.972-102.68 103.975 102.68L927.115 335.88 823.143 233.214zM751.839 608.174c8.469 7.333 17.879 11.746 24.472 11.746 2.983 0 7.987.24 13.809-1.626 6.654-3.24 13.42-9.814 14.094-23.174 0 0 1.196 22.84-10.088 36.134-.71 1.026-1.448 1.986-2.267 2.786 0 0 15.343-1.013 19.705-.986 4.362-.027 19.704.986 19.704.986-.821-.8-1.561-1.76-2.268-2.786-11.285-13.294-10.093-36.134-10.093-36.134.683 13.36 7.444 19.934 14.093 23.174 5.831 1.866 10.832 1.626 13.816 1.626 6.588 0 16.002-4.413 24.474-11.746 8.469-7.347 7.056-20.2 4.162-26.88-2.749-6.334-57.732-68.627-63.616-75.28v-.614c-.009.014-.116.12-.272.307-.16-.187-.265-.293-.277-.307v.614c-5.881 6.653-60.867 68.946-63.611 75.28-2.897 6.68-4.31 19.533 4.163 26.88zm162.032-26.134L809.898 684.72 705.924 582.04l103.974-102.666L913.871 582.04zM947.262 763.36c-6.864-13.48-11.51-25.2-11.51-35.24 0-2.493.46-3.827 1.438-3.827.726 0 1.129 1.107 1.633 1.92 5.189 8.307 14.836 13.867 25.868 13.867 16.537 0 29.963-12.547 29.963-27.987 0-15.44-13.426-27.986-29.963-27.986-5.385 0-10.367 1.426-14.777 3.64-2.432 1.226-3.458-.734-1.075-2.547 7.071-5.36 11.675-13.48 11.675-22.64 0-16.013-13.918-29.013-31.066-29.013-17.152 0-31.069 13-31.069 29.013 0 9.16 4.604 17.28 11.664 22.64 2.392 1.813 1.357 3.773-1.053 2.547-4.428-2.214-9.415-3.64-14.788-3.64-16.548 0-29.962 12.546-29.962 27.986 0 15.44 13.414 27.987 29.962 27.987 11.03 0 20.668-5.56 25.864-13.867.497-.813.898-1.92 1.622-1.92.982 0 1.452 1.334 1.452 3.827 0 10.04-4.652 21.76-11.522 35.24 2.97-.587 11.954-2.08 17.83-2.08 5.859 0 14.851 1.493 17.814 2.08zm-123.454-64.907 103.972-102.68 103.97 102.68L927.78 801.12 823.808 698.453zM963.391 420.587c-6.181 0-21.291-1.333-34.063 21.92-12.717-22.827-27.68-21.52-33.825-21.52-6.361 0-15.452 4.853-23.633 12.947-8.179 8.093-6.816 22.266-4.019 29.64 2.799 7.36 61.227 83.28 61.227 83.28s59.166-76.32 61.962-83.694c2.798-7.373 4.163-21.533-4.017-29.626-8.183-8.094-17.273-12.947-23.632-12.947zm-35.611 147.72-103.972-102.68L927.78 362.96l103.97 102.667-103.97 102.68zM516.07 375.346c8.468 7.347 17.88 11.747 24.474 11.747 2.981 0 7.986.253 13.809-1.613 6.652-3.24 13.419-9.814 14.092-23.187 0 0 1.196 22.853-10.088 36.133-.709 1.04-1.447 2-2.265 2.787 0 0 15.342-1.013 19.704-.987 4.361-.026 19.705.987 19.705.987-.823-.787-1.56-1.747-2.268-2.787-11.287-13.28-10.093-36.133-10.093-36.133.681 13.373 7.442 19.947 14.093 23.187 5.828 1.866 10.831 1.613 13.815 1.613 6.588 0 16.002-4.4 24.472-11.747 8.469-7.333 7.057-20.186 4.165-26.866-2.752-6.334-57.731-68.627-63.617-75.28v-.627c-.008.013-.115.133-.272.32a21.387 21.387 0 0 0-.276-.32v.627c-5.882 6.653-60.866 68.946-63.61 75.28-2.897 6.68-4.313 19.533 4.16 26.866zm162.034-26.12L574.13 451.893 470.157 349.226l103.973-102.68 103.974 102.68zM711.495 530.534c-6.865-13.48-11.509-25.187-11.509-35.227 0-2.507.46-3.84 1.437-3.84.727 0 1.128 1.12 1.633 1.933 5.188 8.294 14.836 13.854 25.868 13.854 16.536 0 29.962-12.534 29.962-27.987 0-15.44-13.426-27.973-29.962-27.973-5.384 0-10.366 1.413-14.777 3.64-2.433 1.226-3.457-.747-1.073-2.56 7.069-5.36 11.673-13.48 11.673-22.64 0-16-13.917-29-31.067-29-17.152 0-31.068 13-31.068 29 0 9.16 4.604 17.28 11.663 22.64 2.395 1.813 1.36 3.786-1.053 2.56-4.427-2.227-9.414-3.64-14.787-3.64-16.549 0-29.963 12.533-29.963 27.973 0 15.453 13.414 27.987 29.963 27.987 11.032 0 20.667-5.56 25.865-13.854.496-.813.899-1.933 1.62-1.933.982 0 1.452 1.333 1.452 3.84 0 10.04-4.65 21.747-11.524 35.227 2.974-.587 11.956-2.067 17.832-2.067 5.859 0 14.852 1.48 17.815 2.067zM588.04 465.627 692.014 362.96l103.974 102.667-103.974 102.68-103.974-102.68zM727.623 187.76c-6.181 0-21.291-1.333-34.061 21.934-12.718-22.827-27.68-21.534-33.826-21.534-6.361 0-15.452 4.867-23.633 12.96-8.179 8.094-6.816 22.254-4.019 29.627 2.798 7.373 61.226 83.293 61.226 83.293s59.166-76.333 61.965-83.693c2.796-7.373 4.161-21.533-4.02-29.64-8.18-8.093-17.271-12.947-23.632-12.947zm-35.609 147.734L588.04 232.814l103.974-102.667 103.974 102.667-103.974 102.68zM811.926 419.226c10.125-41.093 71.614-68.48 71.614-68.48-51.362-19.28-70.893-71.52-70.893-71.52-20.252 51.227-73.061 71.014-73.061 71.014 52.809 18.266 72.34 68.986 72.34 68.986zm-2.028-172.68 103.973 102.68-103.973 102.667-103.974-102.667 103.974-102.68zM475.726 297.72c-6.865-13.48-11.508-25.2-11.508-35.24 0-2.493.46-3.826 1.438-3.826.725 0 1.128 1.106 1.63 1.92 5.192 8.306 14.839 13.866 25.87 13.866 16.537 0 29.961-12.533 29.961-27.986 0-15.44-13.424-27.974-29.961-27.974-5.384 0-10.367 1.414-14.776 3.627-2.435 1.24-3.459-.733-1.076-2.547 7.07-5.36 11.674-13.48 11.674-22.64 0-16.013-13.917-29.013-31.064-29.013-17.153 0-31.07 13-31.07 29.013 0 9.16 4.604 17.28 11.662 22.64 2.395 1.814 1.36 3.787-1.052 2.547-4.429-2.213-9.413-3.627-14.786-3.627-16.548 0-29.963 12.534-29.963 27.974 0 15.453 13.415 27.986 29.963 27.986 11.029 0 20.666-5.56 25.864-13.866.496-.814.9-1.92 1.622-1.92.98 0 1.451 1.333 1.451 3.826 0 10.04-4.651 21.76-11.524 35.24 2.972-.586 11.955-2.08 17.833-2.08 5.859 0 14.851 1.494 17.812 2.08zm-123.452-64.906 103.972-102.667L560.22 232.814l-103.974 102.68-103.972-102.68zM728.289 653.001c-6.181 0-21.291-1.334-34.063 21.933-12.716-22.827-27.678-21.52-33.822-21.52-6.364 0-15.454 4.853-23.636 12.947-8.178 8.093-6.816 22.266-4.019 29.626 2.799 7.374 61.227 83.294 61.227 83.294s59.166-76.32 61.964-83.694c2.797-7.373 4.161-21.533-4.02-29.626-8.18-8.107-17.271-12.96-23.631-12.96zM692.68 800.734l-103.972-102.68L692.68 595.387l103.974 102.667-103.974 102.68zM280.971 607.773c8.469 7.347 17.879 11.747 24.472 11.747 2.981 0 7.987.253 13.811-1.613 6.652-3.241 13.417-9.814 14.092-23.187 0 0 1.196 22.853-10.09 36.133-.708 1.04-1.448 2-2.264 2.787 0 0 15.342-1.014 19.704-.987 4.36-.027 19.706.987 19.706.987-.823-.787-1.562-1.747-2.268-2.787-11.287-13.28-10.094-36.133-10.094-36.133.68 13.373 7.442 19.946 14.092 23.187 5.831 1.866 10.831 1.613 13.815 1.613 6.588 0 16.003-4.4 24.473-11.747 8.47-7.333 7.058-20.186 4.163-26.866-2.751-6.334-57.729-68.627-63.615-75.294V505c-.009.013-.117.133-.272.307-.16-.174-.265-.294-.276-.307v.613c-5.882 6.667-60.866 68.96-63.612 75.294-2.896 6.68-4.312 19.533 4.163 26.866zm162.032-26.12L339.028 684.32 235.056 581.653l103.972-102.68 103.975 102.68zM493.823 683.721c-5.386 0-10.367 1.413-14.776 3.64-2.435 1.226-3.458-.747-1.078-2.56 7.071-5.36 11.676-13.48 11.676-22.64 0-16-13.917-29-31.065-29-17.153 0-31.069 13-31.069 29 0 9.16 4.604 17.28 11.662 22.64 2.394 1.813 1.359 3.786-1.052 2.56-4.428-2.227-9.414-3.64-14.786-3.64-16.55 0-29.963 12.533-29.963 27.973 0 15.453 13.413 27.987 29.963 27.987 11.03 0 20.665-5.56 25.864-13.854.496-.813.897-1.933 1.621-1.933.981 0 1.451 1.333 1.451 3.827 0 10.04-4.65 21.76-11.523 35.24 2.972-.587 11.955-2.067 17.832-2.067 5.859 0 14.851 1.48 17.813 2.067-6.866-13.48-11.509-25.2-11.509-35.24 0-2.494.46-3.827 1.439-3.827.725 0 1.128 1.12 1.629 1.933 5.192 8.294 14.84 13.854 25.871 13.854 16.537 0 29.962-12.534 29.962-27.987 0-15.44-13.425-27.973-29.962-27.973zm-36.91 117.013-103.972-102.68 103.972-102.667 103.974 102.667-103.974 102.68zM492.52 420.187c-6.181 0-21.289-1.334-34.061 21.933-12.716-22.827-27.679-21.533-33.824-21.533-6.362 0-15.454 4.866-23.632 12.96-8.182 8.093-6.819 22.253-4.019 29.626 2.797 7.374 61.224 83.294 61.224 83.294s59.168-76.334 61.965-83.694c2.795-7.373 4.16-21.546-4.02-29.64-8.18-8.093-17.272-12.946-23.633-12.946zm-35.607 147.72L352.941 465.24l103.972-102.68 103.974 102.68-103.974 102.667zM576.825 651.653c10.124-41.093 71.614-68.48 71.614-68.48-51.363-19.28-70.893-71.52-70.893-71.52-20.253 51.227-73.062 71.013-73.062 71.013 52.809 18.254 72.341 68.987 72.341 68.987zm-2.029-172.68 103.975 102.68L574.796 684.32 470.824 581.653l103.972-102.68zM191.743 429.347c0 9.16 4.605 17.28 11.664 22.64 2.393 1.813 1.359 3.773-1.053 2.546-4.428-2.226-9.413-3.626-14.787-3.626-16.549 0-29.964 12.533-29.964 27.973s13.415 27.987 29.964 27.987c11.031 0 20.668-5.56 25.864-13.867.496-.813.899-1.92 1.623-1.92.98 0 1.452 1.333 1.452 3.827 0 10.04-4.652 21.76-11.524 35.24 2.972-.587 11.954-2.08 17.832-2.08 5.857 0 14.851 1.493 17.812 2.08-6.865-13.48-11.508-25.2-11.508-35.24 0-2.494.458-3.827 1.437-3.827.727 0 1.128 1.107 1.632 1.92 5.19 8.307 14.838 13.867 25.87 13.867 16.537 0 29.962-12.547 29.962-27.987 0-15.44-13.425-27.973-29.962-27.973-5.386 0-10.368 1.4-14.778 3.626-2.432 1.227-3.459-.733-1.075-2.546 7.07-5.36 11.674-13.48 11.674-22.64 0-16.014-13.916-29.014-31.064-29.014-17.154 0-31.071 13-31.071 29.014zm133.376 35.893L221.146 567.907 117.173 465.24l103.973-102.68 103.973 102.68zM341.058 418.827c10.125-41.08 71.613-68.48 71.613-68.48-51.361-19.266-70.893-71.52-70.893-71.52-20.251 51.24-73.059 71.027-73.059 71.027 52.808 18.253 72.339 68.973 72.339 68.973zm-2.03-172.666 103.975 102.666-103.975 102.68-103.972-102.68 103.972-102.666zM223.108 778.893s59.166-76.333 61.964-83.706c2.798-7.36 4.16-21.534-4.018-29.627-8.182-8.093-17.272-12.947-23.634-12.947-6.181 0-21.289-1.333-34.06 21.934-12.719-22.827-27.681-21.533-33.826-21.533-6.362 0-15.451 4.853-23.634 12.959-8.178 8.094-6.816 22.254-4.017 29.627 2.797 7.373 61.225 83.293 61.225 83.293zm-1.297-183.906 103.973 102.68-103.973 102.666-103.972-102.666 103.972-102.68zM140.881 567.333c-5.384 0-10.365 1.414-14.776 3.64-2.433 1.227-3.457-.733-1.073-2.546 7.069-5.36 11.675-13.48 11.675-22.64 0-16.014-13.919-29.014-31.067-29.014-17.153 0-31.07 13-31.07 29.014 0 9.16 4.603 17.28 11.665 22.64 2.393 1.813 1.356 3.773-1.054 2.546-4.43-2.226-9.414-3.64-14.786-3.64-16.551 0-29.964 12.534-29.964 27.987 0 15.44 13.413 27.987 29.964 27.987 11.029 0 20.666-5.574 25.864-13.867.496-.813.898-1.92 1.62-1.92.982 0 1.453 1.333 1.453 3.827 0 10.04-4.65 21.76-11.524 35.226 2.972-.586 11.955-2.066 17.832-2.066 5.86 0 14.851 1.48 17.813 2.066-6.865-13.466-11.509-25.186-11.509-35.226 0-2.494.461-3.827 1.437-3.827.727 0 1.13 1.107 1.631 1.92 5.191 8.293 14.84 13.867 25.869 13.867 16.538 0 29.964-12.547 29.964-27.987 0-15.453-13.426-27.987-29.964-27.987zm-36.908 117.014L0 581.68 103.973 479l103.972 102.68-103.972 102.667z"/>
    </g>
</svg>
