<svg width="662" height="706" viewBox="0 0 662 706" fill="none" xmlns="http://www.w3.org/2000/svg">
    <g opacity=".2" fill="#433272" fill-opacity=".2">
        <path d="m174.726 392.879 24.499-.203c13.999-.117 22.763 1.561 29.778 3.252 5.264 1.707 10.558 6.913 14.101 12.134 3.544 5.22 5.352 12.205 5.41 19.205.073 8.75-1.619 15.764-6.825 21.058-5.206 5.293-10.427 8.837-17.398 12.395-5.235 1.793-12.235 1.851-24.484 1.953l.436 52.499-24.499.203-1.018-122.496zm24.892 47.045 6.999-.058c5.25-.044 10.5-.087 12.235-1.852 1.75-.014 3.486-1.779 5.221-3.543 1.735-1.765 1.721-3.515 1.692-7.015-.044-5.249-1.823-8.735-5.337-10.456-3.515-1.721-7.015-1.691-14.014-1.633l-7 .058.204 24.499zM262.224 392.152l22.749-.189.829 99.746 33.249-.276.189 22.749-57.748.48-1.018-122.495 1.75-.015zM381.218 391.163l24.499-.204 48.266 122.103-24.499.204-8.953-24.427-50.748.422-10.296 24.587-24.499.203 46.23-122.888zm12.511 31.397-15.4 42.129 33.249-.276-17.849-41.853zM433.719 390.726l24.499-.204 23.113 43.56 22.385-43.938 24.499-.203-34.416 70.288.436 52.498-22.749.189-.437-52.498-37.33-69.692zM378.464 270.432c-73.454 5.861-39.42 100.081 41.034 94.162 80.468-4.169 37.684-98.317-41.034-94.162z"/>
        <path d="M348.236 212.932c-129.496 1.076-235.369 106.96-234.278 238.205 1.076 129.496 106.96 235.369 238.206 234.278 129.495-1.076 235.369-106.96 234.278-238.205-1.091-131.246-108.711-235.355-238.206-234.278zm3.709 446.234c-117.246.975-212.528-92.736-213.502-209.982-.975-117.246 92.736-212.528 209.982-213.503 117.246-.975 212.528 92.736 213.503 209.982-.775 117.261-94.487 212.543-209.983 213.503zM339.867 48.495c-55.649 42.464-44.611 107.124-44.611 107.124S259.501 64.913 213.537 9.293c-6.403 71.806 15.382 166.128 15.382 166.128s-28.494-59.265-98.521-62.183c58.025 32.769 81.283 93.828 86.664 109.534 33.074-21.276 73.221-33.86 115.205-35.959-5.366-13.956-21.639-76.823 7.6-138.318z"/>
    </g>
</svg>
