<svg width="658" height="660" viewBox="0 0 658 660" fill="none" xmlns="http://www.w3.org/2000/svg">
    <g opacity=".5" fill="#fff" fill-opacity=".05">
        <path d="M949 577.506v-83.991l-1.429-.75v85.491l1.429-.75zm0 0v-83.991l-1.429-.75v85.491l1.429-.75zm0 0v-83.991l-1.429-.75v85.491l1.429-.75zm0 0v-83.991l-1.429-.75v85.491l1.429-.75zm0 0v-83.991l-1.429-.75v85.491l1.429-.75zM634.096 413.244l155.308-81.011v162.022l-155.308 81.01V413.244zM868.481 537l1.43.74 76.23 39.766-153.879 80.249-1.429.75-155.307-80.999 155.307-81.011L868.481 537zm-76.219-204.767 74.802 39.015 2.859 1.49 77.648 40.506v162.021l-74.802-39.015-1.429-.74-79.078-41.255V332.233zm-1.429 327.762 1.429-.75 155.309-80.989 1.429-.75V412.493l-77.648-40.494-2.858-1.49-76.232-39.755-1.429-.75-158.166 82.489v165.013l158.166 82.489zM949 577.506v-83.991l-1.429-.75v85.491l1.429-.75zm0 0v-83.991l-1.429-.75v85.491l1.429-.75zm0 0v-83.991l-1.429-.75v85.491l1.429-.75zm0 0v-83.991l-1.429-.75v85.491l1.429-.75zm0 0v-83.991l-1.429-.75v85.491l1.429-.75z"/>
        <path d="m317.762 413.242 155.31-81.006v162.019l-155.31 81.014V413.242zm158.166-81.006 155.311 81.006v162.027l-155.311-81.014V332.236zM474.5 658.509l-155.31-81.005L474.5 496.49l155.31 81.014-155.31 81.005zm0 1.491 158.167-82.496V412.497L474.5 330.001l-158.167 82.496v165.007L474.5 660zM1.428 413.242l155.31-81.006v162.019L1.428 575.269V413.242zm158.167-81.006 155.31 81.006v162.027l-155.31-81.014V332.236zm-1.428 326.273L2.855 577.504l155.312-81.014 155.309 81.014-155.309 81.005zm0 1.491 158.166-82.496V412.497l-158.166-82.496L0 412.497v165.007L158.167 660zM949 247.503v-83.988l-1.429-.751v85.489l1.429-.75zm0 0v-83.988l-1.429-.751v85.489l1.429-.75zm0 0v-83.988l-1.429-.751v85.489l1.429-.75zm0 0v-83.988l-1.429-.751v85.489l1.429-.75zm0 0v-83.988l-1.429-.751v85.489l1.429-.75zM634.096 83.243l155.308-81v162.023l-155.308 81.007V83.243zm234.398 123.754 1.417.739 76.23 39.767-153.879 80.26-1.429.751-155.307-81.011 155.307-81.011 77.661 40.505zM792.262 2.244l74.802 39.014 2.859 1.485 77.648 40.5v162.03l-74.814-39.027-1.417-.739-79.078-41.241V2.244zm-1.429 327.76 1.429-.751 155.309-81 1.429-.75V82.5l-77.66-40.508-2.846-1.484L792.262.75 790.833 0 632.667 82.5v165.003l158.166 82.501zM949 247.503v-83.988l-1.429-.751v85.489l1.429-.75zm0 0v-83.988l-1.429-.751v85.489l1.429-.75zm0 0v-83.988l-1.429-.751v85.489l1.429-.75zm0 0v-83.988l-1.429-.751v85.489l1.429-.75zm0 0v-83.988l-1.429-.751v85.489l1.429-.75zM317.762 83.242l155.31-81.006v162.021l-155.31 81.013V83.242zM475.929 2.236l155.31 81.006V245.27l-155.31-81.013V2.236zM474.5 328.51l-155.31-81.006 155.31-81.013 155.31 81.013-155.31 81.006zm0 1.49 158.167-82.496V82.5L474.5 0 316.333 82.5v165.005L474.5 330.001zM1.428 83.242l155.31-81.006v162.021L1.428 245.27V83.242zM159.595 2.236l155.31 81.006V245.27l-155.31-81.013V2.236zm-1.428 326.275L2.855 247.505l155.312-81.013 155.309 81.013-155.309 81.006zm0 1.49 158.166-82.496V82.5L158.167 0 0 82.5v165.005l158.167 82.496z"/>
        <path d="m475.928 248.242 147.821-77.096 7.493-3.91v162.021l-155.314 81.015v-162.03zm158.169-81.006 7.485 3.902 147.821 77.104v162.03l-155.306-81.015V167.236zm7.485 321.617-8.913 4.653-8.92-4.653-146.394-76.345 155.314-81.015 155.306 81.015-146.393 76.345zm-18.51 1.139 9.597 5.008 9.598-5.008L790.831 412.5v-165l-148.556-77.492-9.606-5.008-9.605 5.008L474.5 247.5v165l148.572 77.492zM159.595 248.242l155.31-81.006v162.02l-155.31 81.013V248.242zm158.166-81.006 155.311 81.006v162.027l-155.311-81.013v-162.02zm-1.428 326.274-155.309-81.006 155.309-81.013 155.31 81.013-155.31 81.006zm0 1.49L474.5 412.504V247.498l-158.167-82.497-158.166 82.497v165.006L316.333 495z"/>
        <path d="M1.428 329.259V167.23l7.5 3.905 147.808 77.109v162.03L1.428 329.259zM0 493.516v1.485l9.597-5.005 148.57-77.495V247.502L9.597 170.007 0 165.002v166.484l155.306 81.015L8.912 488.868 0 493.516zM553.581 42.735l1.435-.742 77.653-40.508 77.653 40.508 1.428.742L787.975 82.5 641.59 158.862l-7.493 3.91-1.428.743-1.435-.743-7.493-3.91L477.363 82.5l76.218-39.765zm-77.653 40.507L623.064 160l8.17 4.257 1.435.743 1.428-.743 8.17-4.265 147.136-76.75 1.428-.742V0h-1.428v80.272L714.597 41.25l-1.428-.742L635.516 0h-5.694l-77.653 40.508-1.435.742-74.806 39.022V0H474.5v82.5l1.428.742zM237.25 42.735l1.43-.742 77.653-40.508 77.653 40.508 1.431.742L471.639 82.5l-153.875 80.272-1.431.743-1.43-.743L161.027 82.5l76.223-39.765zm-77.653 40.507 155.306 81.015 1.43.745 1.431-.745L473.07 83.242l1.43-.742V0h-1.43v80.272L398.264 41.25l-1.431-.742L319.18 0h-5.694l-77.653 40.508-1.43.742-74.806 39.022V0h-1.43v82.5l1.43.742z"/>
        <path d="M1.428 162.772 0 163.515v1.487l1.428-.745L9.598 160l147.138-76.758 1.431-.742V0h-1.431v80.272L81.928 41.25l-1.428-.742L2.847 0H0v1.485l77.653 40.508 1.428.742L155.306 82.5 8.912 158.87l-7.484 3.902zM632.667 154.176c-5.982 0-10.831 4.843-10.831 10.826 0 5.98 4.849 10.828 10.831 10.828 5.981 0 10.831-4.848 10.831-10.828 0-5.983-4.85-10.826-10.831-10.826zM316.333 154.176c-5.981 0-10.831 4.843-10.831 10.826 0 5.98 4.85 10.828 10.831 10.828 5.982 0 10.831-4.848 10.831-10.828 0-5.983-4.849-10.826-10.831-10.826z"/>
        <path d="M0 175.823v-21.655c3.697 0 6.973 1.856 8.912 4.702.264.355.495.726.685 1.131a10.508 10.508 0 0 1 1.238 5.002c0 1.815-.437 3.506-1.238 5.004-.19.399-.42.771-.668 1.128a10.787 10.787 0 0 1-7.501 4.593 9.91 9.91 0 0 1-1.428.095zM474.5 322.566a7.437 7.437 0 1 0 7.437 7.436 7.437 7.437 0 0 0-7.437-7.436zM158.167 322.566a7.437 7.437 0 1 0 0 14.871 7.436 7.436 0 1 0 0-14.871zM467.059 0h14.882a7.344 7.344 0 0 1-.839 3.44 6.9 6.9 0 0 1-.716 1.114 7.406 7.406 0 0 1-4.456 2.747c-.454.1-.935.14-1.43.14-.495 0-.976-.04-1.43-.14a7.403 7.403 0 0 1-4.456-2.747 6.9 6.9 0 0 1-.716-1.114 7.344 7.344 0 0 1-.839-3.44zM150.726 0h14.881a7.343 7.343 0 0 1-.838 3.44 6.963 6.963 0 0 1-.715 1.114 7.408 7.408 0 0 1-4.457 2.747c-.454.1-.935.14-1.43.14-.495 0-.977-.04-1.431-.14a7.409 7.409 0 0 1-4.456-2.747 6.963 6.963 0 0 1-.715-1.114 7.344 7.344 0 0 1-.839-3.44z"/>
    </g>
</svg>
